PathFileType	4	(x/y/z)	S10_P20_T02
DataRate	CameraRate	NumFrames	NumMarkers	Units	OrigDataRate	OrigDataStartFrame	OrigNumFrames
240	240	4	51	mm	240	264	422
Frame#	Time	Sternum			R.Acromium			L.Acromium			Top.Head			R.ASIS			L.ASIS			R.PSIS			L.PSIS			R.Great.Tro			L.Great.Tro			R.Iliac.Crest			L.Iliac.Crest			V.Sacral			R.Thigh.Upper.Post			R.Thigh.Lower.Ant			R.Thigh.Lower.Post			R.Thigh.Upper.Ant			R.Knee.Lat			R.Knee.Med			R.Shank.Upper.Post			R.Shank.Lower.Ant			R.Shank.Lower.Post			R.Shank.Upper.Ant			R.Ankle.Lat			R.Ankle.Med			R.Heel.Upper			R.Heel.Med			R.Heel.Lat			R.Toe.Lat			R.Toe.Med			R.Toe.Tip			L.Thigh.Upper.Post			L.Thigh.Lower.Ant			L.Thigh.Lower.Post			L.Thigh.Upper.Ant			L.Knee.Lat			L.Knee.Med			L.Shank.Upper.Post			L.Shank.Lower.Ant			L.Shank.Lower.Post			L.Shank.Upper.Ant			L.Ankle.Lat			L.Ankle.Med			L.Heel.Upper			L.Heel.Med			L.Heel.Lat			L.Toe.Lat			L.Toe.Med			L.Toe.Tip			Cervical.Spine			Back			
		X1	Y1	Z1	X2	Y2	Z2	X3	Y3	Z3	X4	Y4	Z4	X5	Y5	Z5	X6	Y6	Z6	X7	Y7	Z7	X8	Y8	Z8	X9	Y9	Z9	X10	Y10	Z10	X11	Y11	Z11	X12	Y12	Z12	X13	Y13	Z13	X14	Y14	Z14	X15	Y15	Z15	X16	Y16	Z16	X17	Y17	Z17	X18	Y18	Z18	X19	Y19	Z19	X20	Y20	Z20	X21	Y21	Z21	X22	Y22	Z22	X23	Y23	Z23	X24	Y24	Z24	X25	Y25	Z25	X26	Y26	Z26	X27	Y27	Z27	X28	Y28	Z28	X29	Y29	Z29	X30	Y30	Z30	X31	Y31	Z31	X32	Y32	Z32	X33	Y33	Z33	X34	Y34	Z34	X35	Y35	Z35	X36	Y36	Z36	X37	Y37	Z37	X38	Y38	Z38	X39	Y39	Z39	X40	Y40	Z40	X41	Y41	Z41	X42	Y42	Z42	X43	Y43	Z43	X44	Y44	Z44	X45	Y45	Z45	X46	Y46	Z46	X47	Y47	Z47	X48	Y48	Z48	X49	Y49	Z49	X50	Y50	Z50	X51	Y51	Z51	

264	1.0958	147.98	1266.2	359.66	28.78	1424.9	514.78	13.249	1445	213.32	-15.438	1737.9	391.06	105.02	996.6	483.77	100.61	1019.3	253.4	-97.209	1011.6	395.26	-94.865	1019.6	313.89	23.736	918.03	554.92	51.411	952.33	192.54	5.2325	1074.1	527.27	29.112	1086.2	223.44	-115.39	979.96	357.8	-3.6539	710.27	550.61	42.606	622.99	521.31	-24.332	623.68	540.88	66.723	711.03	529.03	-61.093	501.03	506.36	-49.195	501.3	379.15	-247.3	359.57	497.35	-232.52	268.82	486.46	-291.07	300.02	491.68	-182.49	327.78	495.08	-338.2	201.41	471.72	-322.56	206.36	391.36	-405.77	212.37	419.21	-421.76	191.33	389.81	-424.15	193.79	451.87	-334.84	52.428	493.87	-311.87	44.029	385.57	-261.22	40.56	422.62	85.485	674.09	209.98	174.1	616.86	242.73	109.05	585.27	237.87	158.5	702.82	215.9	165.4	514.07	254.21	165.94	521.03	383.16	131.04	294.06	260.09	208.83	217.24	281.05	144.94	218.29	272.14	195.47	292.53	268.51	189.13	104.31	287.84	202.14	117.23	374.39	128.33	73.268	338.53	141.9	41.362	371.34	134.73	44.041	306.81	310.02	46.66	265.81	338.61	59.033	371.39	389.53	76.461	321.96	-54.307	1482.3	378.9	-135.97	1273.2	375.91
265	1.1	153.78	1265.5	359.38	34.073	1424.3	514.25	19.147	1444.2	212.77	-9.9987	1737.3	390.64	110.6	995.95	483.39	106.45	1019	253.04	-91.51	1010.8	394.85	-89.137	1019	313.52	29.662	916.97	554.41	57.417	952.33	192.05	10.693	1073.4	526.89	34.981	1085.9	223.08	-109.55	979.24	357.23	3.5078	709.11	550.6	50.558	622.1	521.78	-16.437	622.32	541.15	73.904	710.36	529.08	-52.562	499.51	507.05	-39.556	498.97	379.92	-240.03	360.37	497.28	-226.35	269.43	487.12	-284.51	301.35	491.67	-175.67	327.77	495.69	-332.41	203.27	472.18	-316.57	207.98	391.57	-398.82	216.31	419.62	-415.42	195.83	390.07	-417.78	198.28	452.21	-333.25	53.945	493.8	-310.5	45.157	385.51	-260.42	40.082	422.6	91.607	674	209.67	180.17	616.85	242.74	115.13	585.23	237.68	164.58	702.81	215.87	171.39	513.94	254.42	171.57	521.16	383.35	134.8	294.33	260.28	211.62	216.59	281.46	147.75	218.41	272.39	199.18	292.02	268.84	190.2	104.2	288	203.4	116.86	374.66	128.83	73.569	338.66	142.11	41.494	371.41	134.93	44.363	306.87	310.41	45.638	265.84	339.2	57.211	371.6	390.4	74.163	322.11	-48.735	1481.7	378.18	-130.31	1272.6	375.17
266	1.1042	159.55	1264.9	359.13	39.351	1423.7	513.74	25.037	1443.4	212.23	-4.5583	1736.8	390.22	116.13	995.31	482.99	112.26	1018.7	252.68	-85.857	1010.1	394.43	-83.448	1018.5	313.16	35.562	915.92	553.88	63.366	952.37	191.57	16.135	1072.7	526.51	40.798	1085.6	222.74	-103.75	978.56	356.66	10.727	707.96	550.58	58.59	621.24	522.23	-8.457	620.98	541.43	81.13	709.71	529.11	-43.904	498.01	507.73	-29.747	496.64	380.68	-232.56	361.21	497.22	-220	270.08	487.79	-277.75	302.73	491.67	-168.67	327.79	496.3	-326.43	205.19	472.65	-310.4	209.65	391.78	-391.56	220.28	420.05	-408.78	200.42	390.36	-411.13	202.85	452.57	-331.55	55.625	493.72	-308.96	46.43	385.47	-259.55	39.565	422.62	97.657	673.93	209.33	186.16	616.85	242.7	121.14	585.2	237.47	170.59	702.81	215.79	177.31	513.82	254.62	177.2	521.33	383.52	138.46	294.62	260.44	214.29	215.98	281.83	150.45	218.57	272.62	202.78	291.55	269.13	191.18	104.13	288.16	204.55	116.58	374.93	129.27	73.834	338.78	142.29	41.619	371.47	135.12	44.652	306.92	310.75	44.783	265.86	339.72	55.587	371.8	391.17	72.112	322.25	-43.17	1481.3	377.47	-124.68	1272	374.44
267	1.1083	165.3	1264.3	358.9	44.614	1423.2	513.25	30.918	1442.7	211.72	0.8837	1736.3	389.81	121.61	994.7	482.6	118.03	1018.5	252.33	-80.251	1009.4	394.02	-77.798	1018.1	312.79	41.43	914.9	553.36	69.257	952.46	191.08	21.555	1072	526.14	46.558	1085.3	222.42	-97.996	977.92	356.08	18.001	706.83	550.57	66.698	620.42	522.67	-0.39838	619.65	541.7	88.4	709.11	529.12	-35.125	496.52	508.38	-19.781	494.32	381.43	-224.91	362.09	497.17	-213.48	270.78	488.46	-270.81	304.15	491.67	-161.49	327.85	496.9	-320.26	207.15	473.13	-304.03	211.36	391.99	-384.01	224.29	420.5	-401.83	205.07	390.67	-404.2	207.48	452.95	-329.73	57.467	493.61	-307.25	47.848	385.43	-258.6	39.01	422.68	103.63	673.87	208.97	192.07	616.86	242.63	127.06	585.18	237.25	176.52	702.81	215.67	183.12	513.71	254.79	182.81	521.51	383.66	141.99	294.93	260.58	216.83	215.41	282.16	153.03	218.76	272.82	206.24	291.09	269.38	192.09	104.1	288.31	205.61	116.37	375.17	129.65	74.066	338.89	142.46	41.737	371.54	135.28	44.909	306.97	311.05	44.08	265.86	340.18	54.15	371.99	391.85	70.296	322.38	-37.612	1480.8	376.78	-119.09	1271.5	373.72
